<mxfile host="app.diagrams.net" modified="2022-11-06T06:15:10.342Z" agent="5.0 (Windows NT 10.0; Win64; x64) AppleWebKit/537.36 (KHTML, like Gecko) Chrome/107.0.0.0 Safari/537.36 Edg/107.0.1418.35" etag="WpVqlPr6CLUIb67UGFN_" version="20.5.2" type="github">
  <diagram id="I5p0cVo-zuJLJ8Hl6sqR" name="Page-1">
    <mxGraphModel dx="1520" dy="1037" grid="1" gridSize="10" guides="1" tooltips="1" connect="1" arrows="1" fold="1" page="1" pageScale="1" pageWidth="850" pageHeight="1100" math="0" shadow="0">
      <root>
        <mxCell id="0" />
        <mxCell id="1" parent="0" />
        <mxCell id="YiGfBQ7Tgmzh8utmoK7U-4" value="" style="edgeStyle=orthogonalEdgeStyle;rounded=0;orthogonalLoop=1;jettySize=auto;html=1;startArrow=classic;startFill=1;" edge="1" parent="1" source="YiGfBQ7Tgmzh8utmoK7U-1" target="YiGfBQ7Tgmzh8utmoK7U-3">
          <mxGeometry relative="1" as="geometry" />
        </mxCell>
        <mxCell id="YiGfBQ7Tgmzh8utmoK7U-5" style="edgeStyle=orthogonalEdgeStyle;rounded=0;orthogonalLoop=1;jettySize=auto;html=1;exitX=1;exitY=0.5;exitDx=0;exitDy=0;startArrow=classic;startFill=1;" edge="1" parent="1" source="YiGfBQ7Tgmzh8utmoK7U-1" target="YiGfBQ7Tgmzh8utmoK7U-2">
          <mxGeometry relative="1" as="geometry" />
        </mxCell>
        <mxCell id="YiGfBQ7Tgmzh8utmoK7U-9" value="" style="edgeStyle=orthogonalEdgeStyle;rounded=0;orthogonalLoop=1;jettySize=auto;html=1;startArrow=classic;startFill=1;exitX=1;exitY=0.5;exitDx=0;exitDy=0;" edge="1" parent="1" source="YiGfBQ7Tgmzh8utmoK7U-10" target="YiGfBQ7Tgmzh8utmoK7U-8">
          <mxGeometry relative="1" as="geometry" />
        </mxCell>
        <mxCell id="YiGfBQ7Tgmzh8utmoK7U-1" value="AssetMan&lt;br&gt;API" style="rounded=0;whiteSpace=wrap;html=1;" vertex="1" parent="1">
          <mxGeometry x="425" y="90" width="120" height="60" as="geometry" />
        </mxCell>
        <mxCell id="YiGfBQ7Tgmzh8utmoK7U-2" value="MongoDB" style="shape=cylinder3;whiteSpace=wrap;html=1;boundedLbl=1;backgroundOutline=1;size=15;" vertex="1" parent="1">
          <mxGeometry x="670" y="190" width="60" height="80" as="geometry" />
        </mxCell>
        <mxCell id="YiGfBQ7Tgmzh8utmoK7U-3" value="AssetMan&lt;br&gt;UI5" style="rounded=0;whiteSpace=wrap;html=1;" vertex="1" parent="1">
          <mxGeometry x="225" y="90" width="120" height="60" as="geometry" />
        </mxCell>
        <mxCell id="YiGfBQ7Tgmzh8utmoK7U-7" style="edgeStyle=orthogonalEdgeStyle;rounded=0;orthogonalLoop=1;jettySize=auto;html=1;exitX=0.5;exitY=0;exitDx=0;exitDy=0;exitPerimeter=0;entryX=0;entryY=0.5;entryDx=0;entryDy=0;startArrow=classic;startFill=1;" edge="1" parent="1" source="YiGfBQ7Tgmzh8utmoK7U-6" target="YiGfBQ7Tgmzh8utmoK7U-3">
          <mxGeometry relative="1" as="geometry" />
        </mxCell>
        <mxCell id="YiGfBQ7Tgmzh8utmoK7U-6" value="User" style="shape=umlActor;verticalLabelPosition=bottom;verticalAlign=top;html=1;outlineConnect=0;" vertex="1" parent="1">
          <mxGeometry x="60" y="200" width="30" height="60" as="geometry" />
        </mxCell>
        <mxCell id="YiGfBQ7Tgmzh8utmoK7U-11" style="edgeStyle=orthogonalEdgeStyle;rounded=0;orthogonalLoop=1;jettySize=auto;html=1;exitX=1;exitY=0.5;exitDx=0;exitDy=0;entryX=0.5;entryY=1;entryDx=0;entryDy=0;entryPerimeter=0;startArrow=classic;startFill=1;" edge="1" parent="1" source="YiGfBQ7Tgmzh8utmoK7U-8" target="YiGfBQ7Tgmzh8utmoK7U-2">
          <mxGeometry relative="1" as="geometry" />
        </mxCell>
        <mxCell id="YiGfBQ7Tgmzh8utmoK7U-8" value="Westrun Bank&lt;br&gt;API" style="rounded=0;whiteSpace=wrap;html=1;" vertex="1" parent="1">
          <mxGeometry x="425" y="320" width="120" height="60" as="geometry" />
        </mxCell>
        <mxCell id="YiGfBQ7Tgmzh8utmoK7U-12" style="edgeStyle=orthogonalEdgeStyle;rounded=0;orthogonalLoop=1;jettySize=auto;html=1;exitX=0;exitY=0.5;exitDx=0;exitDy=0;startArrow=classic;startFill=1;" edge="1" parent="1" source="YiGfBQ7Tgmzh8utmoK7U-10" target="YiGfBQ7Tgmzh8utmoK7U-6">
          <mxGeometry relative="1" as="geometry" />
        </mxCell>
        <mxCell id="YiGfBQ7Tgmzh8utmoK7U-10" value="Westrun Bank&lt;br&gt;UI5" style="rounded=0;whiteSpace=wrap;html=1;" vertex="1" parent="1">
          <mxGeometry x="225" y="320" width="120" height="60" as="geometry" />
        </mxCell>
        <mxCell id="YiGfBQ7Tgmzh8utmoK7U-13" value="Containters - Local Development&lt;br style=&quot;font-size: 17px;&quot;&gt;" style="text;html=1;strokeColor=none;fillColor=none;align=left;verticalAlign=middle;whiteSpace=wrap;rounded=0;fontSize=17;fontStyle=1" vertex="1" parent="1">
          <mxGeometry x="80" y="30" width="280" height="30" as="geometry" />
        </mxCell>
      </root>
    </mxGraphModel>
  </diagram>
</mxfile>
